<svg width="1920" height="1080" viewBox="0 0 1920 1080" fill="none" xmlns="http://www.w3.org/2000/svg">
<path d="M1476.42 -279.53C1476.42 -279.53 747.866 -42.1076 515.199 100.532C282.533 243.172 126.038 358.283 145.334 415.133C164.629 471.984 269.648 420.667 714.472 278.375C1055.46 169.299 1665.59 12.4992 1738.11 100.528C1810.62 188.558 1576.98 324.759 1372.19 415.163C1167.4 505.566 937.692 559.923 747.661 663.24C557.631 766.557 515.197 834.821 515.197 834.821C515.197 834.821 428.529 942.92 567.034 999.861C705.538 1056.8 1624.93 1096.46 1624.93 1096.46" stroke="url(#paint0_linear_984_4117)" stroke-opacity="0.1" stroke-width="4"/>
<defs>
<linearGradient id="paint0_linear_984_4117" x1="1046.89" y1="13.2312" x2="639.882" y2="1060.04" gradientUnits="userSpaceOnUse">
<stop stop-color="#FFEF5A"/>
<stop offset="1" stop-color="white" stop-opacity="0"/>
</linearGradient>
</defs>
</svg>
