<svg width="78" height="78" viewBox="0 0 78 78" fill="none" xmlns="http://www.w3.org/2000/svg">
<circle cx="38.7544" cy="38.8091" r="38.5015" fill="#071314"/>
<path fill-rule="evenodd" clip-rule="evenodd" d="M52.5645 32.8275C52.482 32.8213 52.3905 32.8213 52.2945 32.8213H48.507C45.405 32.8213 42.7515 35.3311 42.7515 38.6025C42.7515 41.874 45.4065 44.3838 48.507 44.3838H52.2945C52.3905 44.3838 52.482 44.3838 52.5675 44.3776C53.205 44.3381 53.8068 44.0617 54.2608 43.6C54.7148 43.1382 54.9899 42.5226 55.035 41.8678C55.041 41.7753 55.041 41.6751 55.041 41.5826V35.6225C55.041 35.53 55.041 35.4298 55.035 35.3373C54.9899 34.6825 54.7148 34.0669 54.2608 33.6051C53.8068 33.1433 53.205 32.867 52.5675 32.8275M48.1755 40.1442C48.9735 40.1442 49.62 39.4535 49.62 38.6025C49.62 37.7515 48.9735 37.0609 48.1755 37.0609C47.376 37.0609 46.7295 37.7515 46.7295 38.6025C46.7295 39.4535 47.376 40.1442 48.1755 40.1442Z" fill="white"/>
<path fill-rule="evenodd" clip-rule="evenodd" d="M52.2915 46.6966C52.3434 46.6945 52.395 46.7049 52.4422 46.7271C52.4894 46.7494 52.5308 46.7827 52.5631 46.8244C52.5954 46.8662 52.6177 46.9152 52.6281 46.9675C52.6385 47.0197 52.6368 47.0738 52.6231 47.1252C52.3231 48.2229 51.8445 49.1602 51.078 49.9464C49.9545 51.1027 48.5311 51.613 46.7731 51.8566C45.0631 52.0924 42.8806 52.0924 40.1236 52.0924H36.9556C34.1986 52.0924 32.0146 52.0924 30.3061 51.8566C28.5481 51.613 27.1246 51.1012 26.0011 49.948C24.8791 48.7933 24.3811 47.3302 24.1441 45.5234C23.9146 43.7659 23.9146 41.5228 23.9146 38.6892V38.5165C23.9146 35.6829 23.9146 33.4383 24.1441 31.6808C24.3811 29.8739 24.8791 28.4109 26.0011 27.2562C27.1246 26.103 28.5481 25.5912 30.3061 25.3476C32.0161 25.1133 34.1986 25.1133 36.9556 25.1133H40.1236C42.8806 25.1133 45.0646 25.1133 46.7731 25.3492C48.5311 25.5927 49.9545 26.1046 51.078 27.2577C51.8445 28.0471 52.3231 28.9829 52.6231 30.0805C52.6368 30.132 52.6385 30.186 52.6281 30.2383C52.6177 30.2905 52.5954 30.3395 52.5631 30.3813C52.5308 30.423 52.4894 30.4564 52.4422 30.4786C52.395 30.5008 52.3434 30.5113 52.2915 30.5091H48.5056C44.25 30.5091 40.5001 33.9624 40.5001 38.6029C40.5001 43.2433 44.25 46.6966 48.5056 46.6966H52.2915ZM29.5396 31.2799C29.2412 31.2799 28.955 31.4018 28.7441 31.6186C28.5331 31.8354 28.4146 32.1295 28.4146 32.4362C28.4146 32.7429 28.5331 33.037 28.7441 33.2538C28.955 33.4706 29.2412 33.5924 29.5396 33.5924H35.5396C35.8379 33.5924 36.1241 33.4706 36.335 33.2538C36.546 33.037 36.6646 32.7429 36.6646 32.4362C36.6646 32.1295 36.546 31.8354 36.335 31.6186C36.1241 31.4018 35.8379 31.2799 35.5396 31.2799H29.5396Z" fill="white"/>
</svg>
