<svg width="24" height="25" viewBox="0 0 24 25" fill="none" xmlns="http://www.w3.org/2000/svg">
<path d="M3.26318 9.0988C3.26318 6.96047 3.26318 5.89131 4.01565 5.2269C4.76901 4.5625 5.98027 4.5625 8.40459 4.5625H10.9753C13.3987 4.5625 14.6109 4.5625 15.3633 5.2269C16.1167 5.89131 16.1167 6.96047 16.1167 9.0988V12.8797C16.1167 15.018 16.1167 16.0872 15.3633 16.7516C14.6109 17.416 13.3987 17.416 10.9753 17.416H8.40459C5.98027 17.416 4.76901 17.416 4.01565 16.7516C3.26318 16.0872 3.26318 15.018 3.26318 12.8797V9.0988Z" fill="white" fill-opacity="0.5"/>
<path d="M7.80029 13.1404C7.80029 11.011 7.80029 9.9463 8.54961 9.28467C9.29983 8.62305 10.506 8.62305 12.9202 8.62305H15.4802C17.8935 8.62305 19.1006 8.62305 19.8499 9.28467C20.6001 9.9463 20.6001 11.011 20.6001 13.1404V16.9055C20.6001 19.0349 20.6001 20.0996 19.8499 20.7612C19.1006 21.4229 17.8935 21.4229 15.4802 21.4229H12.9202C10.506 21.4229 9.29983 21.4229 8.54961 20.7612C7.80029 20.0996 7.80029 19.0349 7.80029 16.9055V13.1404Z" fill="white"/>
</svg>
